<?xml version="1.0" encoding="UTF-8" standalone="no"?>
<!-- Created with Inkscape (http://www.inkscape.org/) -->

<svg
   xmlns:dc="http://purl.org/dc/elements/1.1/"
   xmlns:cc="http://creativecommons.org/ns#"
   xmlns:rdf="http://www.w3.org/1999/02/22-rdf-syntax-ns#"
   xmlns:svg="http://www.w3.org/2000/svg"
   xmlns="http://www.w3.org/2000/svg"
   xmlns:sodipodi="http://sodipodi.sourceforge.net/DTD/sodipodi-0.dtd"
   xmlns:inkscape="http://www.inkscape.org/namespaces/inkscape"
   width="1500mm"
   height="300mm"
   viewBox="0 0 1500 300"
   version="1.1"
   id="svg8"
   inkscape:version="0.92.1 r15371"
   sodipodi:docname="welle2.svg">
  <defs
     id="defs2">
    <filter
       style="color-interpolation-filters:sRGB;"
       inkscape:label="Blur"
       id="filter5173">
      <feGaussianBlur
         stdDeviation="2 2"
         result="blur"
         id="feGaussianBlur5171" />
    </filter>
    <filter
       inkscape:collect="always"
       style="color-interpolation-filters:sRGB"
       id="filter5435"
       x="-0.0071808832"
       width="1.0143618"
       y="-0.025161509"
       height="1.050323">
      <feGaussianBlur
         inkscape:collect="always"
         stdDeviation="2.0326155"
         id="feGaussianBlur5437" />
    </filter>
  </defs>
  <sodipodi:namedview
     id="base"
     pagecolor="#ffffff"
     bordercolor="#666666"
     borderopacity="1.0"
     inkscape:pageopacity="0.0"
     inkscape:pageshadow="2"
     inkscape:zoom="0.24748737"
     inkscape:cx="2221.5685"
     inkscape:cy="406.44426"
     inkscape:document-units="mm"
     inkscape:current-layer="layer1"
     showgrid="false"
     inkscape:window-width="1920"
     inkscape:window-height="1016"
     inkscape:window-x="0"
     inkscape:window-y="27"
     inkscape:window-maximized="1" />
  <metadata
     id="metadata5">
    <rdf:RDF>
      <cc:Work
         rdf:about="">
        <dc:format>image/svg+xml</dc:format>
        <dc:type
           rdf:resource="http://purl.org/dc/dcmitype/StillImage" />
        <dc:title></dc:title>
      </cc:Work>
    </rdf:RDF>
  </metadata>
  <g
     inkscape:label="Ebene 1"
     inkscape:groupmode="layer"
     id="layer1"
     transform="translate(0,3)">
    <g
       id="g5117"
       transform="matrix(2.1958676,0,0,1.3580626,-1203.318,-89.382917)"
       style="fill:#1eabd5;fill-opacity:1;filter:url(#filter5435)">
      <path
         sodipodi:nodetypes="zssszsssszsszz"
         inkscape:connector-curvature="0"
         id="path5038"
         d="m 637.79475,161.06993 c 11.8841,-21.46442 40.54576,-32.91211 58.72146,-29.33471 19.95539,3.92769 46.87292,59.41793 60.81864,43.64432 15.65865,-17.71099 21.69775,-43.27717 41.68695,-52.36774 44.1484,-20.07751 198.9155,76.88325 214.3755,61.51028 15.4601,-15.37297 -9.1821,-76.76986 41.7392,-69.24292 68.3113,10.09745 44.0411,28.61923 20.972,18.6025 -23.0692,-10.01673 -28.6617,-12.16317 -40.5458,-6.43933 -11.8841,5.72385 2.8402,69.3251 -18.1757,70.11712 -20.8758,0.78674 -182.0586,-78.37822 -210.0467,-63.18676 -27.9881,15.19147 -29.7122,60.88983 -54.8989,56.03195 -32.15223,-6.20137 -43.34203,-44.3598 -72.00369,-45.07529 -28.66166,-0.71547 -38.44857,48.65269 -48.23548,51.51462 -9.78691,2.86192 -6.29159,-14.30962 5.59252,-35.77404 z"
         style="fill:#1eabd5;fill-opacity:1;stroke:#000000;stroke-width:0.12376441px;stroke-linecap:butt;stroke-linejoin:miter;stroke-opacity:1" />
      <path
         sodipodi:nodetypes="zssszszsszsszz"
         inkscape:connector-curvature="0"
         id="path5038-3"
         d="m 648.62567,187.42549 c 11.88407,-21.46442 21.67098,-25.75731 39.84671,-22.17991 19.95535,3.92769 64.74272,43.98519 82.48962,32.91212 19.524,-12.18181 15.1471,-37.58948 59.6107,-50.2213 43.323,-12.30777 184.1878,73.90156 197.1303,57.44185 12.9424,-16.45971 5.5462,-69.39286 44.6468,-62.12407 61.0742,11.35366 60.6454,-20.56314 73.6091,-2.92767 12.9638,17.63548 -65.9108,12.42358 -87.6812,15.61782 -13.0014,1.90762 -6.1554,48.17896 -24.4031,59.90572 -23.155,14.88041 -160.6683,-59.61811 -195.2378,-55.1218 -34.5694,4.4963 -41.0164,37.52464 -64.7089,46.88941 -30.52118,12.06387 -82.60535,-29.06342 -97.33967,-27.34698 -17.19695,2.00333 -16.07847,25.04183 -25.86538,27.90376 -9.78691,2.86191 -13.9813,0.71547 -2.09718,-20.74895 z"
         style="fill:#1eabd5;fill-opacity:1;stroke:#000000;stroke-width:0.12376441px;stroke-linecap:butt;stroke-linejoin:miter;stroke-opacity:1" />
      <path
         sodipodi:nodetypes="zssszsssssszsszz"
         inkscape:connector-curvature="0"
         id="path5038-3-6"
         d="m 664.51344,209.61214 c 2.98643,-23.4881 24.14724,-15.19535 40.83533,-7.00226 22.42692,11.01058 51.16988,22.18219 70.62613,14.69894 10.6263,-4.08707 45.2883,-37.84792 70.4856,-40.10287 40.3742,-3.61316 177.2673,69.34827 196.1416,48.84119 18.8743,-20.50708 3.569,-67.36916 42.6696,-60.10038 30.5371,5.67682 60.4043,-2.12005 79.3145,-11.6613 18.9102,-9.54125 1.3516,-37.83723 12.0899,-38.82298 30.7032,-2.81845 9.9003,41.64651 -15.7387,52.43328 -27.5946,11.60948 -74.8981,10.66179 -85.7833,12.25891 -13.0014,1.90761 -7.6383,41.60197 -28.3576,58.89388 -21.1893,17.68424 -162.6456,-53.04114 -197.215,-48.54483 -34.5695,4.4963 -48.9255,27.91214 -72.618,37.27691 -30.52116,12.06387 -80.13377,-25.52197 -94.86808,-23.80553 -17.19696,2.00332 15.5576,26.05367 5.77068,28.9156 -9.78691,2.86191 -26.33908,0.20954 -23.35266,-23.27856 z"
         style="fill:#1eabd5;fill-opacity:1;stroke:#000000;stroke-width:0.12376441px;stroke-linecap:butt;stroke-linejoin:miter;stroke-opacity:1" />
      <path
         sodipodi:nodetypes="zssszssssszsszz"
         inkscape:connector-curvature="0"
         id="path5038-7"
         d="m 614.62634,133.67868 c 11.8841,-21.46441 40.63598,-33.36272 58.72146,-29.3347 66.02341,14.70479 52.73607,53.60105 72.18786,46.17393 20.34364,-7.76765 -4.70156,-46.18453 52.06754,-53.885508 36.1759,-4.907416 172.785,65.728958 191.1428,58.474758 18.3578,-7.2542 -7.3372,-75.819737 38.2789,-66.713319 90.5408,18.074799 140.9887,39.556419 99.5679,37.827509 -12.5193,-0.52256 -24.4629,-9.64309 -42.723,-15.09246 -26.305,-7.85027 -60.5903,-15.457484 -66.5323,-12.595562 -11.8842,5.723842 -2.846,65.911032 -23.1189,71.634882 -20.2729,5.72384 -147.5146,-66.70718 -195.1324,-62.40554 -47.61788,4.30164 -26.9504,61.44676 -50.04067,57.27441 -32.19045,-5.81674 -31.67457,-61.13187 -91.77623,-47.09897 -27.95205,6.52642 -38.44857,48.65269 -48.23548,51.51461 -9.78691,2.86193 -6.29158,-14.30961 5.59252,-35.77404 z"
         style="fill:#1eabd5;fill-opacity:1;stroke:#000000;stroke-width:0.12376441px;stroke-linecap:butt;stroke-linejoin:miter;stroke-opacity:1" />
      <path
         sodipodi:nodetypes="sssssssssscs"
         inkscape:connector-curvature="0"
         id="path5085"
         d="m 730.83607,126.76387 c -2.53016,-6.09316 -51.65575,-40.979627 -80.32594,-31.873043 -28.67019,9.106583 -47.4541,22.766453 -51.40862,42.497393 -3.9545,19.73093 -19.52538,37.43817 -13.0993,48.56844 6.42607,11.13027 23.72705,-8.60066 29.65881,-6.57698 5.93177,2.02369 -6.17892,16.6954 -17.05382,23.52534 -10.1466,6.37254 -26.94009,-9.35954 -27.4344,-33.13784 -0.49431,-23.7783 14.33509,-50.84509 33.61332,-62.9872 19.27823,-12.142114 34.6761,-23.188271 53.88018,-26.30791 19.53421,-3.173265 42.83815,1.678937 58.08184,15.68356 12.10292,11.11915 30.64744,22.00758 28.17588,31.11416 -2.47157,9.10658 -9.88629,9.6125 -14.08795,-0.50592 z"
         style="fill:#1eabd5;fill-opacity:1;stroke:#000000;stroke-width:0.12376441px;stroke-linecap:butt;stroke-linejoin:miter;stroke-opacity:1" />
      <path
         sodipodi:nodetypes="cssssssssssssssssssc"
         inkscape:connector-curvature="0"
         id="path5087"
         d="m 568.70123,122.21058 c -8.89764,19.22501 -11.86352,38.45002 -8.40333,51.60397 3.4602,13.15395 17.79529,41.48555 27.68156,43.50923 9.88627,2.02369 19.27823,-16.6954 30.64744,-16.18948 11.36921,0.50592 21.25548,23.7783 38.55646,30.8612 17.30098,7.08289 43.02155,22.55223 49.43136,10.62435 5.43745,-10.11843 -21.01635,-30.23291 0.98862,-21.75462 12.0103,4.62744 51.90293,23.7783 65.74366,19.22501 13.8408,-4.55329 58.3291,-42.49739 83.539,-39.46186 25.21,3.03553 80.0788,22.76645 70.6869,23.7783 -9.392,1.01184 -56.4321,-8.9602 -70.6869,-11.13027 -24.0851,-3.66659 -51.9029,25.29607 -79.5844,35.92041 -15.3367,5.88632 -34.10767,-3.54145 -50.91433,-7.58882 -15.10917,-3.63859 5.93176,17.70725 -7.90902,18.71909 -6.9204,0.50592 -49.06063,-11.50971 -66.17624,-20.55305 -17.11561,-9.04334 -27.9905,-22.70322 -37.62962,-22.45026 -19.27823,0.50592 -12.85215,20.23685 -26.69293,16.18948 -13.84078,-4.04737 -36.5792,-41.99147 -37.56783,-63.24016 -0.98863,-21.24869 7.4147,-52.61582 11.86353,-54.13358 4.44882,-1.51776 6.42607,6.07106 6.42607,6.07106 z"
         style="fill:#1eabd5;fill-opacity:1;stroke:#000000;stroke-width:0.12376441px;stroke-linecap:butt;stroke-linejoin:miter;stroke-opacity:1" />
      <path
         sodipodi:nodetypes="zsssssscssscsssszz"
         inkscape:connector-curvature="0"
         id="path5089"
         d="m 742.20529,255.7738 c 9.88628,2.52961 30.64741,9.61249 48.44271,-1e-5 17.7953,-9.61251 41.5224,-32.88487 61.2949,-32.88487 19.7725,0 101.1882,12.37428 126.05,19.22501 25.7043,7.08289 52.8915,17.20131 64.2607,12.1421 11.3692,-5.05921 22.1854,-10.58548 26.693,-23.27237 3.9545,-11.13027 3.4602,-41.48555 15.818,-39.96778 12.3578,1.51776 72.1698,-0.50593 91.448,-11.13027 19.2782,-10.62435 32.6247,-45.53292 44.4882,-44.01516 11.8636,1.51777 9.392,7.0829 6.9204,10.62435 -2.4716,3.54145 -23.2327,33.89672 -37.0735,42.49739 -13.8408,8.60066 -93.4253,10.11843 -101.8286,14.67172 -8.4033,4.55329 -5.0942,35.44727 -19.7725,47.55659 -20.8504,17.20112 -48.9371,16.69541 -79.0902,6.07106 -21.2188,-7.47638 -132.476,-25.80198 -146.8111,-20.74278 -14.3351,5.05922 -32.1304,26.81383 -46.4655,32.88489 -16.4685,6.97458 -57.34039,4.04738 -59.81196,-3.03552 -2.47157,-7.0829 -4.44883,-13.15396 5.43745,-10.62435 z"
         style="fill:#1eabd5;fill-opacity:1;stroke:#000000;stroke-width:0.12376441px;stroke-linecap:butt;stroke-linejoin:miter;stroke-opacity:1" />
    </g>
  </g>
</svg>
